<svg width="800" height="540" viewBox="0 0 800 540" fill="none" xmlns="http://www.w3.org/2000/svg">
  <rect width="800" height="540" fill="#D9DEE8"/>
  <rect y="334" width="800" height="206" fill="#748E47"/>
  <path d="M0 352C141 328 231 307 345 278C430 257 495 241 606 232C671 226 731 230 800 241V0H0V352Z" fill="#E8ECF4"/>
  <path d="M511 171C534 146 557 136 590 134C614 132 644 140 666 157C692 178 707 205 711 239C713 265 705 288 690 310C677 328 657 343 635 351L583 369L554 321L594 304C611 297 626 283 633 265C640 248 639 226 630 207C622 189 607 175 589 168C570 161 548 162 530 170L511 171Z" fill="#222222"/>
  <path d="M426 176C455 163 480 162 503 175C530 191 544 224 538 256L521 348L433 365L420 278C416 249 415 226 426 176Z" fill="#111111"/>
  <path d="M368 132C391 121 415 121 435 131C456 142 470 163 475 187C480 210 476 235 462 253C449 271 428 283 405 287C382 291 357 286 338 272C319 259 307 238 304 215C301 192 308 169 321 151C333 142 349 137 368 132Z" fill="#F1C4A8"/>
  <path d="M298 188L359 156L420 293L358 325L298 188Z" fill="#F9F9F9"/>
  <path d="M369 148C390 137 409 136 426 142C447 149 464 166 472 187C477 198 480 209 480 220C444 223 406 214 369 194C355 186 343 176 333 164C343 156 355 151 369 148Z" fill="#5B3425"/>
  <path d="M329 318L404 290L445 397L370 425L329 318Z" fill="#242424"/>
  <path d="M453 254L500 236L559 384L512 402L453 254Z" fill="#1A1A1A"/>
  <path d="M512 207L535 198L731 243L724 257L512 207Z" fill="#3B2B19"/>
  <path d="M162 454L323 389L340 436L179 501L162 454Z" fill="#312313"/>
  <path d="M0 493C111 463 206 433 336 389L351 430C248 473 170 505 64 540H0V493Z" fill="#1B1713"/>
  <path d="M546 330L579 381L537 397L511 346L546 330Z" fill="#2E2E2E"/>
  <circle cx="258" cy="153" r="44" fill="#DDD7D1"/>
  <path d="M225 147C246 106 279 86 324 82C365 79 405 95 431 125C387 130 350 144 319 166C291 185 269 211 253 242C232 221 220 192 225 147Z" fill="#7EA264"/>
</svg>
