<svg width="116" height="40" viewBox="0 0 116 40" fill="none" xmlns="http://www.w3.org/2000/svg">
<rect width="116" height="40" fill="#1E1E1E"/>
<rect width="116" height="40" fill="black"/>
<path d="M24.014 26.868L11.254 22.16V19.08L24.014 14.372V17.034L13.344 20.598V20.642L24.014 24.206V26.868ZM32.7461 27.22C31.4261 27.22 30.2968 26.9853 29.3581 26.516C28.4341 26.0467 27.7228 25.372 27.2241 24.492C26.7254 23.5973 26.4761 22.5267 26.4761 21.28C26.4761 20.0333 26.7254 18.97 27.2241 18.09C27.7228 17.1953 28.4341 16.5133 29.3581 16.044C30.2968 15.5747 31.4261 15.34 32.7461 15.34C33.4061 15.34 34.0221 15.406 34.5941 15.538C35.1808 15.6553 35.7528 15.8607 36.3101 16.154L35.8481 18.266C35.3348 18.002 34.8361 17.8113 34.3521 17.694C33.8828 17.562 33.4061 17.496 32.9221 17.496C31.7488 17.496 30.8394 17.826 30.1941 18.486C29.5488 19.146 29.2261 20.0773 29.2261 21.28C29.2261 22.4827 29.5488 23.414 30.1941 24.074C30.8394 24.734 31.7488 25.064 32.9221 25.064C33.4061 25.064 33.8828 25.0053 34.3521 24.888C34.8361 24.756 35.3348 24.558 35.8481 24.294L36.3101 26.406C35.7528 26.6847 35.1808 26.89 34.5941 27.022C34.0221 27.154 33.4061 27.22 32.7461 27.22ZM43.9711 27.22C42.1231 27.22 40.6931 26.7067 39.6811 25.68C38.6838 24.6387 38.1851 23.172 38.1851 21.28C38.1851 19.388 38.6838 17.9287 39.6811 16.902C40.6931 15.8607 42.1231 15.34 43.9711 15.34C45.8191 15.34 47.2491 15.8607 48.2611 16.902C49.2731 17.9287 49.7791 19.388 49.7791 21.28C49.7791 23.172 49.2731 24.6387 48.2611 25.68C47.2491 26.7067 45.8191 27.22 43.9711 27.22ZM43.9711 25.064C44.9831 25.064 45.7531 24.7487 46.2811 24.118C46.8091 23.4727 47.0731 22.5267 47.0731 21.28C47.0731 20.0333 46.8091 19.0947 46.2811 18.464C45.7531 17.8187 44.9831 17.496 43.9711 17.496C42.9738 17.496 42.2038 17.8187 41.6611 18.464C41.1331 19.0947 40.8691 20.0333 40.8691 21.28C40.8691 22.5267 41.1331 23.4727 41.6611 24.118C42.2038 24.7487 42.9738 25.064 43.9711 25.064ZM56.3454 27.22C54.8201 27.22 53.6321 26.6993 52.7814 25.658C51.9307 24.6167 51.5054 23.1573 51.5054 21.28C51.5054 19.4027 51.9307 17.9433 52.7814 16.902C53.6321 15.8607 54.8201 15.34 56.3454 15.34C57.1081 15.34 57.7974 15.472 58.4134 15.736C59.0294 16 59.5501 16.3887 59.9754 16.902H60.0414V10.94H62.7034V27H60.1734L60.1294 25.658H60.0854C59.6601 26.1567 59.1174 26.5453 58.4574 26.824C57.8121 27.088 57.1081 27.22 56.3454 27.22ZM57.0494 25.02C57.6214 25.02 58.1274 24.9027 58.5674 24.668C59.0221 24.4333 59.3814 24.1107 59.6454 23.7C59.9094 23.2893 60.0414 22.8273 60.0414 22.314V20.246C60.0414 19.718 59.9094 19.256 59.6454 18.86C59.3814 18.4493 59.0294 18.1267 58.5894 17.892C58.1494 17.6573 57.6361 17.54 57.0494 17.54C56.1254 17.54 55.4067 17.8627 54.8934 18.508C54.3947 19.1533 54.1454 20.0773 54.1454 21.28C54.1454 22.4827 54.3947 23.4067 54.8934 24.052C55.4067 24.6973 56.1254 25.02 57.0494 25.02ZM70.934 27.22C69.086 27.22 67.656 26.7067 66.644 25.68C65.6467 24.6387 65.148 23.172 65.148 21.28C65.148 19.388 65.6467 17.9287 66.644 16.902C67.656 15.8607 69.086 15.34 70.934 15.34C72.782 15.34 74.212 15.8607 75.224 16.902C76.236 17.9287 76.742 19.388 76.742 21.28C76.742 23.172 76.236 24.6387 75.224 25.68C74.212 26.7067 72.782 27.22 70.934 27.22ZM70.934 25.064C71.946 25.064 72.716 24.7487 73.244 24.118C73.772 23.4727 74.036 22.5267 74.036 21.28C74.036 20.0333 73.772 19.0947 73.244 18.464C72.716 17.8187 71.946 17.496 70.934 17.496C69.9367 17.496 69.1667 17.8187 68.624 18.464C68.096 19.0947 67.832 20.0333 67.832 21.28C67.832 22.5267 68.096 23.4727 68.624 24.118C69.1667 24.7487 69.9367 25.064 70.934 25.064ZM83.9124 27.88L91.7444 10.06H94.4284L86.5964 27.88H83.9124ZM95.3777 26.868V24.206L106.048 20.642V20.598L95.3777 17.034V14.372L108.138 19.08V22.16L95.3777 26.868Z" fill="white"/>
</svg>
